<?xml version="1.0" encoding="utf-8"?>
<!-- Generator: Adobe Illustrator 24.0.1, SVG Export Plug-In . SVG Version: 6.00 Build 0)  -->
<svg version="1.1" id="Слой_1" xmlns="http://www.w3.org/2000/svg" xmlns:xlink="http://www.w3.org/1999/xlink" x="0px" y="0px"
	 viewBox="0 0 435.3 172.4" style="enable-background:new 0 0 435.3 172.4;" xml:space="preserve">
<style type="text/css">
	.st0{fill:#FFFFFF;}
</style>
<g>
	<g>
		<g>
			<path class="st0" d="M80,0L19.8,35l4.2,2.5L78.7,70l53.9-30.8l4.7-2.7l1.2-0.7L80,0z M76.6,47.7V22.3L94.4,35L76.6,47.7z"/>
			<polygon class="st0" points="17.8,37.8 17.8,51 19.1,52.9 81.3,87.2 138.9,52.8 137.6,51.2 137.3,36.4 132.6,39.1 132.7,51.2 
				81.8,81.1 23.8,49.5 24,36.9 20.4,35.3 19.8,35 			"/>
		</g>
		<g>
			<polygon class="st0" points="16.2,60.1 74.8,93.3 76.6,165.3 64.6,172.4 59.7,172.4 60,169.1 70.2,161.4 69.6,95.8 16.2,65.9 
				6.1,71.8 0.7,69.1 			"/>
			<path class="st0" d="M6,73l-5.3-3L0,136.7l59.7,35.7v-68.7L6,73z M28,147.8c-0.7,1.1-2.1,1.4-3.1,0.8l-2.8-1.7
				c-1.1-0.7-1.4-2.2-0.7-3.3l0.1-0.1c0.7-1,2.1-1.3,3.1-0.6l2.7,1.8c0.7,0.4,1,1.2,1,1.9C28.3,147.1,28.2,147.5,28,147.8z
				 M54.2,158.8L6.5,129.3V78.6l47.8,28.7V158.8z"/>
			<polygon class="st0" points="59.7,169.3 60,169.1 59.7,172.4 			"/>
			<polygon class="st0" points="0.7,69.1 0.7,70 6,73 6.1,71.8 			"/>
		</g>
		<g>
			<polygon class="st0" points="156.9,69.1 152.2,71.8 142.1,65.4 88.7,95.8 88,162.3 97.6,169.4 98.2,169.9 98.2,172 97.6,172.4 
				93.3,172.4 81.9,164.7 83.1,92.7 83.7,92.1 141.8,59.1 			"/>
			<path class="st0" d="M156.9,69.1l-59.3,33.9v69.3l0.6-0.3l60.3-34.3L156.9,69.1z M142.8,126.9l-27.2,16.7v-7.4l27.2-16.1V126.9z
				 M142.8,115.8l-27.2,16.7v-7.4l27.2-16.1V115.8z M142.8,104.1l-27.2,16.7v-7.4l27.2-16.1V104.1z"/>
		</g>
	</g>
	<g>
		<g>
			<path class="st0" d="M212.4,70.6c-3.3,0-6.1-1.1-8.4-3.4c-2.2-2.2-3.4-5-3.4-8.3c0-3.3,1.1-6.1,3.4-8.3c2.2-2.2,5-3.4,8.4-3.4
				c2.7,0,5.1,0.8,7.1,2.3c2,1.5,3.2,3.4,3.8,5.5h-3.1c-0.5-1.5-1.5-2.7-2.9-3.6c-1.4-0.9-3-1.4-4.8-1.4c-2.5,0-4.6,0.9-6.3,2.6
				c-1.7,1.7-2.5,3.8-2.5,6.3c0,2.5,0.8,4.6,2.5,6.3c1.7,1.7,3.8,2.6,6.3,2.6c1.8,0,3.4-0.5,4.8-1.4c1.4-0.9,2.4-2.2,2.9-3.6h3.1
				c-0.5,2.2-1.8,4-3.8,5.5C217.5,69.8,215.1,70.6,212.4,70.6z"/>
			<path class="st0" d="M224.1,70.2l10-22.6h2.5l10,22.6h-3.1l-2.9-6.6h-10.6l-2.9,6.6H224.1z M235.3,51.6l-4.1,9.3h8.2L235.3,51.6z
				"/>
			<path class="st0" d="M249.8,70.2V47.5h3v9.7h12.4v-9.7h3v22.6h-3V60h-12.4v10.2H249.8z"/>
			<path class="st0" d="M271.4,70.2l10-22.6h2.5l10,22.6h-3.1l-2.9-6.6h-10.6l-2.9,6.6H271.4z M282.6,51.6l-4.1,9.3h8.2L282.6,51.6z
				"/>
			<path class="st0" d="M309.6,49.6c1.4,1.4,2.2,3.1,2.2,5.2c0,2.1-0.7,3.8-2.2,5.2c-1.4,1.4-3.3,2-5.6,2h-4v8.3h-3V47.5h6.9
				C306.3,47.5,308.2,48.2,309.6,49.6z M307.6,57.9c0.9-0.8,1.3-1.9,1.3-3.2c0-1.3-0.4-2.4-1.3-3.2c-0.9-0.8-2-1.2-3.6-1.2h-4v8.9h4
				C305.5,59.2,306.7,58.8,307.6,57.9z"/>
			<path class="st0" d="M318.4,70.2h-2.6V47.5h3v17.6l13.8-17.6h2.6v22.6h-2.9V52.5L318.4,70.2z"/>
			<path class="st0" d="M356,70.2V50.3h-12v19.8h-2.9V47.5h17.8v22.6H356z"/>
		</g>
		<g>
			<path class="st0" d="M228.2,125.2l-18.1-19.9v19.9h-9.9V80.8h9.9v18.6l15.1-18.6h12.2l-17.5,21.3l21.1,23.1H228.2z"/>
			<path class="st0" d="M239.3,125.2l19-44.4h9l19,44.4h-10.4l-3.9-9.4h-18.4l-3.9,9.4H239.3z M262.8,93.9l-5.6,13.3h11.2
				L262.8,93.9z"/>
			<path class="st0" d="M290.9,80.8h9.1l13.8,19.1l13.9-19.1h9.1v44.4h-10V97.9l-12.9,17.9l-13-17.9v27.4h-9.9V80.8z"/>
			<path class="st0" d="M373.6,125.2V90.4h-17.4v34.9h-10V80.8h37.4v44.4H373.6z"/>
			<path class="st0" d="M388.2,125.2l19-44.4h9l19,44.4h-10.4l-3.9-9.4h-18.4l-3.9,9.4H388.2z M411.8,93.9l-5.6,13.3h11.2
				L411.8,93.9z"/>
		</g>
	</g>
</g>
</svg>
